<?xml version="1.0" encoding="UTF-8"?>
<!DOCTYPE svg PUBLIC "-//W3C//DTD SVG 1.1//EN" "http://www.w3.org/Graphics/SVG/1.1/DTD/svg11.dtd">
<!-- Creator: CorelDRAW 2021 (64 Bit) -->
<svg xmlns="http://www.w3.org/2000/svg" xml:space="preserve" width="520px" height="520px" version="1.1" style="shape-rendering:geometricPrecision; text-rendering:geometricPrecision; image-rendering:optimizeQuality; fill-rule:evenodd; clip-rule:evenodd"
viewBox="0 0 17.36 17.36"
 xmlns:xlink="http://www.w3.org/1999/xlink"
 xmlns:xodm="http://www.corel.com/coreldraw/odm/2003">
 <defs>
  <style type="text/css">
   <![CDATA[
    .str3 {stroke:snow;stroke-width:0.33;stroke-miterlimit:22.9256}
    .str1 {stroke:#FFFCFC;stroke-width:0.33;stroke-miterlimit:22.9256}
    .str5 {stroke:#FAFAFA;stroke-width:0.67;stroke-miterlimit:22.9256}
    .str6 {stroke:#FCF7F7;stroke-width:0.67;stroke-miterlimit:22.9256}
    .str2 {stroke:snow;stroke-width:0.67;stroke-miterlimit:22.9256}
    .str0 {stroke:#FFFCFC;stroke-width:0.67;stroke-miterlimit:22.9256}
    .str4 {stroke:white;stroke-width:0.67;stroke-miterlimit:22.9256}
    .fil0 {fill:none}
   ]]>
  </style>
 </defs>
 <g id="Camada_x0020_1">
  <metadata id="CorelCorpID_0Corel-Layer"/>
  <g id="_2183717577232">
   <rect class="fil0" width="17.36" height="17.36"/>
   <g>
    <g>
     <path class="fil0 str0" d="M6.65 8.19c-0.27,0.2 -0.73,0.01 -0.76,-0.37l0 0c0.1,-0.39 0.33,-0.5 0.6,-0.43l0.13 0.05c0.09,-0.45 0.67,-0.37 1.64,0.22 -1.05,0.89 -1.46,1.05 -1.61,0.53z"/>
     <path class="fil0 str0" d="M3.58 8.39c0.29,0.16 0.72,-0.09 0.7,-0.46l0 0c-0.15,-0.38 -0.39,-0.45 -0.64,-0.35l-0.13 0.06c-0.15,-0.43 -0.72,-0.28 -1.6,0.44 1.16,0.74 1.59,0.85 1.67,0.31z"/>
     <path class="fil0 str0" d="M4.13 9.2c-0.05,-0.33 0.34,-0.64 0.68,-0.49l0 0c0.3,0.28 0.29,0.52 0.1,0.73l-0.11 0.09c0.35,0.3 0.01,0.77 -0.97,1.34 -0.29,-1.34 -0.23,-1.78 0.3,-1.67z"/>
     <path class="fil0 str0" d="M5.41 6.4c-0.28,0.19 -0.26,0.69 0.08,0.84l0 0c0.4,0.05 0.58,-0.12 0.61,-0.4l0 -0.14c0.46,0.07 0.59,-0.49 0.38,-1.61 -1.2,0.66 -1.5,0.99 -1.07,1.31z"/>
     <path class="fil0 str0" d="M4.59 6.45c0.3,0.15 0.34,0.64 0.02,0.84l0 0c-0.4,0.1 -0.59,-0.05 -0.65,-0.33l-0.03 -0.14c-0.44,0.13 -0.64,-0.42 -0.56,-1.55 1.27,0.51 1.61,0.8 1.22,1.18z"/>
     <path class="fil0 str0" d="M6.19 9.07c0.01,-0.33 -0.41,-0.6 -0.74,-0.4l0 0c-0.26,0.31 -0.22,0.55 0,0.73l0.11 0.08c-0.31,0.34 0.08,0.77 1.13,1.22 0.12,-1.37 0.02,-1.8 -0.5,-1.63z"/>
     <ellipse class="fil0 str1" transform="matrix(0.397663 -0.0261578 0.0261578 0.397663 5.06797 7.94485)" rx="1.8" ry="1.67"/>
    </g>
    <g>
     <path class="fil0 str0" d="M11.67 4.44c-0.29,0.18 -0.73,-0.04 -0.73,-0.42l0 0c0.12,-0.39 0.35,-0.47 0.61,-0.39l0.14 0.06c0.12,-0.44 0.69,-0.33 1.62,0.33 -1.1,0.82 -1.53,0.95 -1.64,0.42z"/>
     <path class="fil0 str0" d="M8.59 4.44c0.28,0.18 0.73,-0.04 0.73,-0.42l0 0c-0.12,-0.39 -0.36,-0.47 -0.62,-0.39l-0.13 0.06c-0.12,-0.44 -0.7,-0.33 -1.63,0.33 1.11,0.82 1.53,0.95 1.65,0.42z"/>
     <path class="fil0 str0" d="M9.08 5.28c-0.02,-0.33 0.39,-0.62 0.72,-0.44l0 0c0.28,0.29 0.25,0.54 0.05,0.73l-0.12 0.09c0.33,0.32 -0.04,0.77 -1.06,1.27 -0.19,-1.36 -0.11,-1.8 0.41,-1.65z"/>
     <path class="fil0 str0" d="M10.55 2.58c-0.29,0.16 -0.31,0.66 0.02,0.84l0 0c0.4,0.08 0.59,-0.09 0.64,-0.36l0.01 -0.14c0.45,0.1 0.62,-0.46 0.48,-1.59 -1.24,0.58 -1.56,0.89 -1.15,1.25z"/>
     <path class="fil0 str0" d="M9.72 2.57c0.29,0.16 0.3,0.66 -0.03,0.84l0 0c-0.4,0.07 -0.59,-0.09 -0.63,-0.37l-0.01 -0.14c-0.45,0.09 -0.62,-0.46 -0.47,-1.59 1.24,0.59 1.56,0.91 1.14,1.26z"/>
     <path class="fil0 str0" d="M11.15 5.29c0.03,-0.33 -0.38,-0.62 -0.71,-0.45l0 0c-0.29,0.29 -0.26,0.54 -0.06,0.73l0.11 0.09c-0.33,0.31 0.04,0.77 1.05,1.28 0.21,-1.35 0.14,-1.79 -0.39,-1.65z"/>
     <ellipse class="fil0 str1" cx="10.1" cy="4.09" rx="0.72" ry="0.67"/>
    </g>
    <g>
     <path class="fil0 str2" d="M13.33 10.93c-0.33,0.02 -0.62,-0.39 -0.44,-0.72l0 0c0.29,-0.28 0.54,-0.25 0.73,-0.04l0.09 0.11c0.31,-0.33 0.76,0.04 1.27,1.06 -1.36,0.2 -1.8,0.11 -1.65,-0.41z"/>
     <path class="fil0 str2" d="M10.62 9.46c0.17,0.29 0.67,0.31 0.85,-0.02l0 0c0.07,-0.4 -0.09,-0.58 -0.36,-0.63l-0.15 -0.02c0.11,-0.44 -0.45,-0.62 -1.58,-0.48 0.58,1.24 0.89,1.56 1.24,1.15z"/>
     <path class="fil0 str2" d="M10.66 10.44c0.14,-0.3 0.63,-0.36 0.84,-0.05l0 0c0.11,0.39 -0.04,0.59 -0.31,0.66l-0.14 0.03c0.14,0.44 -0.4,0.66 -1.54,0.61 0.48,-1.29 0.76,-1.63 1.15,-1.25z"/>
     <path class="fil0 str2" d="M13.24 8.76c-0.34,0 -0.59,0.43 -0.39,0.75l0 0c0.32,0.26 0.56,0.2 0.73,-0.01l0.08 -0.12c0.35,0.3 0.76,-0.11 1.18,-1.16 -1.37,-0.09 -1.8,0.03 -1.6,0.54z"/>
     <path class="fil0 str2" d="M12.51 8.35c0.18,0.29 -0.05,0.73 -0.43,0.73l0 0c-0.38,-0.13 -0.47,-0.36 -0.37,-0.62l0.05 -0.14c-0.44,-0.12 -0.32,-0.69 0.35,-1.61 0.81,1.11 0.94,1.53 0.4,1.64z"/>
     <path class="fil0 str2" d="M12.47 11.43c0.18,-0.28 -0.03,-0.73 -0.41,-0.73l0 0c-0.39,0.11 -0.48,0.34 -0.39,0.61l0.05 0.13c-0.44,0.12 -0.34,0.69 0.31,1.63 0.83,-1.09 0.97,-1.51 0.44,-1.64z"/>
     <ellipse class="fil0 str3" transform="matrix(0.350378 0.189883 -0.189883 0.350378 12.1229 9.87792)" rx="1.8" ry="1.67"/>
    </g>
    <rect class="fil0 str4" x="2.78" y="11.49" width="5.5" height="4.31" rx="2.15" ry="2.15"/>
    <polygon class="fil0 str5" points="14.99,12.34 11.97,14.46 9.04,12.32 9.72,14.41 8.95,15.59 14.99,15.59 13.88,14.53 "/>
    <ellipse class="fil0 str6" cx="4.89" cy="2.83" rx="1.41" ry="1.49"/>
    <rect class="fil0 str0" x="14.16" y="1.34" width="1.43" height="4.31"/>
   </g>
  </g>
 </g>
</svg>
