<?xml version="1.0" encoding="UTF-8"?>
<!DOCTYPE svg PUBLIC "-//W3C//DTD SVG 1.1//EN" "http://www.w3.org/Graphics/SVG/1.1/DTD/svg11.dtd">
<!-- Creator: CorelDRAW 2021 (64 Bit) -->
<svg xmlns="http://www.w3.org/2000/svg" xml:space="preserve" width="520px" height="520px" version="1.1" style="shape-rendering:geometricPrecision; text-rendering:geometricPrecision; image-rendering:optimizeQuality; fill-rule:evenodd; clip-rule:evenodd"
viewBox="0 0 30.84 30.84"
 xmlns:xlink="http://www.w3.org/1999/xlink"
 xmlns:xodm="http://www.corel.com/coreldraw/odm/2003">
 <defs>
  <style type="text/css">
   <![CDATA[
    .str0 {stroke:black;stroke-width:0.19;stroke-miterlimit:22.9256}
    .str1 {stroke:#696464;stroke-width:0.19;stroke-miterlimit:22.9256}
    .fil0 {fill:none}
    .fil1 {fill:black}
    .fil2 {fill:#9E9696}
   ]]>
  </style>
 </defs>
 <g id="Camada_x0020_1">
  <metadata id="CorelCorpID_0Corel-Layer"/>
  <g id="_2774093416512">
   <rect class="fil0" width="30.84" height="30.84"/>
   <g>
    <g>
     <path class="fil1 str0" d="M14.7 10.65l-0.32 -1.86 0.16 1.86c-0.1,1.07 -0.08,1.84 -0.48,3.1 -0.36,1.16 -0.43,2.43 0,3.85 0.44,0.88 0.73,1.21 0.97,1.95 0.19,0.82 0.07,0.9 -0.24,0.59 -0.25,-0.54 -0.5,-1.08 -0.75,-1.62 -0.57,-0.71 -0.78,-0.37 -0.47,1 0.54,1.08 1.05,2.24 1.5,3.46 0.29,1.31 -0.01,1.55 -0.43,0.53 -0.18,-0.53 -0.21,-1 -0.34,-1.51 -0.12,-0.43 -0.3,-0.87 -0.49,-1.33 -0.32,-0.79 -1.13,-0.71 -0.81,0.98l1.06 4.44c0.13,0.63 0.13,1.03 -0.08,1.06 -1.46,-0.55 -2.68,-1.74 -3.56,-3.81 0.24,-0.45 0.68,-0.65 1.08,-0.74 -0.28,-0.33 -0.76,-0.42 -1,-0.42 0.64,-0.26 1.05,-0.97 1.13,-1.86 -0.22,0.15 -0.41,0.44 -0.65,0.44 0.24,-0.26 0.51,-0.77 0.43,-1.12 -0.35,0.59 -0.51,0.77 -0.97,0.97 0.3,-0.91 1,-1.27 1.43,-2.15 0.49,-1.16 0.49,-2.4 0.24,-3.91 -0.08,0.45 -0.4,0.98 -0.64,0.89 0.64,-1.6 0.73,-3.1 0.4,-4.52 -0.22,1.09 -0.24,2.3 -0.89,3.19 0.06,-0.66 0.23,-1.12 0.33,-1.77 0.13,-0.91 0.18,-2.01 0.08,-2.93 -0.17,-1.6 -0.73,-2.66 -1.86,-3.73 0.08,0.8 0.16,0.98 0,1.51 -0.33,-1.24 -0.73,-2.31 -1.46,-3.28 0.08,0.53 0.16,1.24 -0.08,1.24 -0.16,-0.98 -1.22,-1.69 -2.27,-2.22 0.24,0.36 0.41,0.71 0.4,1.17 -0.5,-0.35 -0.97,-0.64 -1.48,-0.69 -0.55,-0.05 -1.01,0.02 -1.75,0.25 1.21,0.44 2.35,1.58 3.07,2.64l-0.48 0.27c0.57,0.44 1.05,0.89 1.29,1.42l-0.89 -0.36c0.49,0.8 0.81,1.25 1.4,1.79 -0.34,-0.01 -0.51,-0.1 -0.89,-0.35 0.32,0.7 0.63,1.31 1.11,1.85 -0.24,0.08 -0.4,0 -0.56,-0.45 -0.08,1.07 -0.08,2.04 0.16,3.2 -0.24,-0.27 -0.41,-0.63 -0.49,-1.07 -0.24,1.51 -0.32,2.4 -0.08,4.08 -0.24,-0.18 -0.32,-0.35 -0.48,-0.8 0.24,2.31 0.56,3.55 1.7,5.42l-1.54 -0.18c1.54,0.53 1.62,0.53 2.26,1.24 0.49,0.53 0.97,1.15 1.3,1.86 1.13,1.95 3.52,3.75 3.76,3.83 0.32,0.33 0.66,0.19 0.93,-0.17 0.22,-0.23 0.24,-1.08 -0.08,-1.97l-1.05 -4.17c-0.33,-1.42 0.14,-1.71 0.48,-0.62 0.33,0.69 0.41,2.13 0.65,2.66 0.08,0.27 0.16,0.34 0.33,0.53 0.16,0.19 0.42,0.16 0.48,0.09 0.24,-0.27 0.24,-0.44 0.08,-1.42 -0.48,-1.15 -1.09,-2.46 -1.58,-3.55 -0.24,-0.87 -0.22,-1.31 0.24,-0.45 0.23,0.48 0.46,0.95 0.69,1.43 0.51,0.48 0.84,0.45 0.65,-0.71 -0.24,-0.8 -0.7,-1.54 -1.05,-2.31 -0.19,-0.71 -0.32,-1.14 -0.32,-1.68 -0.01,-0.61 0.11,-1.3 0.24,-1.87 0.32,-1.06 0.48,-1.95 0.48,-3.19l0 0z"/>
     <path class="fil2 str1" d="M11.22 25.4c-3.04,-2.41 -2.36,-7.5 -2.04,-9.81 0.27,-2.06 -0.39,-4.1 -0.43,-4.29 -0.34,-1.71 -0.82,-3.3 -1.62,-4.62 -1.12,-1.83 -2.04,-2.57 -1.77,-2.3 0.62,0.59 0.97,0.56 1.61,1.33 0.8,0.95 1.59,3.46 1.94,4.52 0.56,1.68 0.82,4.45 0.65,5.59 -0.73,4.88 -0.15,7.08 1.66,9.58z"/>
    </g>
    <g>
     <path class="fil1 str0" d="M16.36 10.72l0.33 -1.86 -0.17 1.86c0.11,1.07 0.09,1.84 0.49,3.11 0.36,1.16 0.43,2.43 0,3.84 -0.44,0.89 -0.73,1.22 -0.97,1.95 -0.2,0.83 -0.07,0.91 0.24,0.6 0.25,-0.54 0.5,-1.09 0.75,-1.63 0.56,-0.71 0.78,-0.37 0.47,1.01 -0.54,1.08 -1.05,2.23 -1.51,3.45 -0.28,1.32 0.02,1.56 0.43,0.54 0.18,-0.53 0.21,-1.01 0.35,-1.51 0.11,-0.44 0.29,-0.87 0.48,-1.33 0.33,-0.8 1.14,-0.71 0.81,0.97l-1.05 4.44c-0.13,0.63 -0.13,1.04 0.08,1.06 1.46,-0.55 2.67,-1.74 3.56,-3.81 -0.24,-0.44 -0.68,-0.65 -1.09,-0.73 0.28,-0.33 0.77,-0.42 1.01,-0.42 -0.65,-0.27 -1.05,-0.98 -1.13,-1.87 0.21,0.15 0.4,0.45 0.64,0.45 -0.24,-0.27 -0.5,-0.78 -0.42,-1.13 0.34,0.6 0.51,0.77 0.97,0.98 -0.3,-0.92 -1.01,-1.28 -1.43,-2.16 -0.49,-1.15 -0.49,-2.39 -0.25,-3.9 0.08,0.44 0.41,0.97 0.65,0.88 -0.65,-1.59 -0.73,-3.1 -0.4,-4.52 0.21,1.1 0.24,2.31 0.88,3.19 -0.06,-0.66 -0.22,-1.12 -0.32,-1.77 -0.13,-0.91 -0.18,-2.01 -0.08,-2.93 0.16,-1.59 0.73,-2.66 1.86,-3.72 -0.08,0.79 -0.16,0.97 0,1.5 0.32,-1.24 0.73,-2.3 1.46,-3.28 -0.08,0.53 -0.16,1.24 0.08,1.24 0.16,-0.97 1.21,-1.68 2.26,-2.21 -0.24,0.35 -0.4,0.71 -0.4,1.16 0.5,-0.34 0.98,-0.64 1.49,-0.68 0.55,-0.05 1,0.02 1.75,0.24 -1.21,0.44 -2.35,1.58 -3.08,2.65l0.49 0.26c-0.57,0.45 -1.06,0.89 -1.3,1.42l0.89 -0.35c-0.48,0.8 -0.81,1.24 -1.39,1.78 0.34,-0.01 0.5,-0.1 0.89,-0.35 -0.33,0.71 -0.63,1.32 -1.12,1.85 0.25,0.09 0.41,0 0.57,-0.44 0.08,1.06 0.08,2.04 -0.16,3.19 0.24,-0.27 0.4,-0.62 0.48,-1.06 0.25,1.5 0.33,2.39 0.09,4.08 0.24,-0.18 0.32,-0.36 0.48,-0.8 -0.24,2.3 -0.57,3.55 -1.7,5.41l1.54 -0.18c-1.54,0.53 -1.62,0.53 -2.27,1.24 -0.48,0.54 -0.97,1.16 -1.29,1.87 -1.13,1.95 -3.52,3.74 -3.77,3.83 -0.32,0.33 -0.65,0.18 -0.93,-0.18 -0.21,-0.23 -0.23,-1.07 0.09,-1.97l1.05 -4.17c0.32,-1.42 -0.15,-1.7 -0.49,-0.62 -0.32,0.7 -0.4,2.13 -0.65,2.66 -0.08,0.27 -0.15,0.35 -0.32,0.54 -0.16,0.18 -0.42,0.15 -0.48,0.08 -0.25,-0.26 -0.25,-0.44 -0.08,-1.41 0.48,-1.15 1.08,-2.46 1.57,-3.56 0.24,-0.86 0.23,-1.31 -0.24,-0.44 -0.23,0.47 -0.46,0.95 -0.69,1.42 -0.5,0.48 -0.84,0.45 -0.64,-0.71 0.24,-0.8 0.7,-1.53 1.05,-2.3 0.19,-0.72 0.31,-1.15 0.32,-1.69 0.01,-0.6 -0.11,-1.3 -0.24,-1.86 -0.33,-1.07 -0.49,-1.95 -0.49,-3.2l0 0z"/>
     <path class="fil2 str1" d="M19.85 25.48c3.04,-2.42 2.35,-7.5 2.04,-9.82 -0.28,-2.05 0.39,-4.1 0.43,-4.29 0.34,-1.7 0.82,-3.3 1.62,-4.61 1.11,-1.84 2.04,-2.57 1.76,-2.31 -0.61,0.59 -0.96,0.57 -1.6,1.33 -0.81,0.96 -1.59,3.47 -1.94,4.53 -0.56,1.67 -0.82,4.44 -0.65,5.58 0.73,4.88 0.15,7.09 -1.66,9.59z"/>
    </g>
   </g>
  </g>
 </g>
</svg>
