<?xml version="1.0" encoding="UTF-8"?>
<!DOCTYPE svg PUBLIC "-//W3C//DTD SVG 1.1//EN" "http://www.w3.org/Graphics/SVG/1.1/DTD/svg11.dtd">
<!-- Creator: CorelDRAW 2021 (64 Bit) -->
<svg xmlns="http://www.w3.org/2000/svg" xml:space="preserve" width="520px" height="520px" version="1.1" style="shape-rendering:geometricPrecision; text-rendering:geometricPrecision; image-rendering:optimizeQuality; fill-rule:evenodd; clip-rule:evenodd"
viewBox="0 0 17.39 17.39"
 xmlns:xlink="http://www.w3.org/1999/xlink"
 xmlns:xodm="http://www.corel.com/coreldraw/odm/2003">
 <defs>
  <style type="text/css">
   <![CDATA[
    .str0 {stroke:#D5D5DE;stroke-width:0.11;stroke-miterlimit:22.9256}
    .str1 {stroke:#D9D2D2;stroke-width:0.11;stroke-miterlimit:22.9256}
    .fil0 {fill:none}
    .fil2 {fill:#C2BABA}
    .fil1 {fill:white}
   ]]>
  </style>
 </defs>
 <g id="Camada_x0020_1">
  <metadata id="CorelCorpID_0Corel-Layer"/>
  <g id="_2774099109488">
   <rect class="fil0" width="17.39" height="17.39"/>
   <g>
    <g>
     <path class="fil1 str0" d="M8.29 6l-0.18 -1.05 0.09 1.05c-0.06,0.61 -0.05,1.04 -0.27,1.76 -0.21,0.65 -0.25,1.36 -0.01,2.16 0.25,0.5 0.42,0.69 0.55,1.1 0.11,0.47 0.04,0.51 -0.13,0.34 -0.14,-0.31 -0.28,-0.61 -0.42,-0.92 -0.32,-0.4 -0.44,-0.21 -0.27,0.57 0.3,0.61 0.59,1.26 0.85,1.94 0.16,0.75 -0.01,0.88 -0.24,0.31 -0.11,-0.3 -0.12,-0.57 -0.2,-0.85 -0.06,-0.25 -0.16,-0.5 -0.27,-0.75 -0.18,-0.45 -0.64,-0.4 -0.46,0.55l0.6 2.5c0.07,0.36 0.07,0.58 -0.05,0.6 -0.82,-0.31 -1.51,-0.98 -2.01,-2.15 0.14,-0.25 0.39,-0.37 0.62,-0.42 -0.16,-0.18 -0.44,-0.23 -0.57,-0.23 0.36,-0.15 0.59,-0.55 0.64,-1.05 -0.12,0.08 -0.23,0.25 -0.37,0.25 0.14,-0.15 0.29,-0.44 0.24,-0.64 -0.19,0.34 -0.28,0.44 -0.55,0.55 0.17,-0.51 0.57,-0.72 0.81,-1.21 0.28,-0.65 0.28,-1.35 0.14,-2.2 -0.05,0.25 -0.23,0.55 -0.36,0.5 0.36,-0.91 0.41,-1.75 0.22,-2.56 -0.12,0.62 -0.13,1.31 -0.5,1.81 0.04,-0.38 0.13,-0.64 0.18,-1.01 0.08,-0.51 0.11,-1.13 0.05,-1.65 -0.09,-0.9 -0.41,-1.5 -1.05,-2.1 0.05,0.45 0.09,0.55 0,0.85 -0.18,-0.7 -0.41,-1.3 -0.82,-1.85 0.05,0.3 0.09,0.7 -0.05,0.7 -0.09,-0.55 -0.68,-0.95 -1.27,-1.25 0.13,0.2 0.22,0.4 0.22,0.66 -0.28,-0.19 -0.55,-0.36 -0.83,-0.39 -0.31,-0.02 -0.57,0.01 -0.99,0.14 0.68,0.25 1.32,0.89 1.73,1.49l-0.27 0.15c0.32,0.25 0.59,0.5 0.73,0.8l-0.5 -0.2c0.27,0.45 0.45,0.7 0.79,1.01 -0.2,-0.01 -0.29,-0.06 -0.51,-0.2 0.19,0.4 0.36,0.74 0.63,1.04 -0.14,0.05 -0.23,0 -0.32,-0.25 -0.04,0.6 -0.04,1.15 0.09,1.81 -0.13,-0.16 -0.23,-0.36 -0.27,-0.61 -0.14,0.86 -0.18,1.36 -0.05,2.31 -0.13,-0.1 -0.18,-0.2 -0.27,-0.45 0.14,1.3 0.32,2 0.96,3.05l-0.87 -0.1c0.87,0.3 0.91,0.3 1.28,0.7 0.27,0.3 0.54,0.65 0.73,1.05 0.64,1.1 1.98,2.11 2.12,2.16 0.18,0.18 0.37,0.1 0.52,-0.1 0.13,-0.13 0.14,-0.61 -0.04,-1.11l-0.6 -2.35c-0.18,-0.8 0.09,-0.96 0.28,-0.35 0.18,0.39 0.23,1.2 0.36,1.5 0.05,0.15 0.09,0.19 0.19,0.3 0.09,0.1 0.23,0.09 0.27,0.05 0.14,-0.15 0.14,-0.25 0.05,-0.8 -0.28,-0.65 -0.62,-1.39 -0.89,-2.01 -0.14,-0.48 -0.13,-0.74 0.13,-0.25 0.13,0.27 0.26,0.54 0.39,0.81 0.29,0.27 0.47,0.25 0.37,-0.4 -0.14,-0.45 -0.4,-0.87 -0.6,-1.3 -0.11,-0.41 -0.18,-0.65 -0.18,-0.95 -0.01,-0.35 0.06,-0.74 0.14,-1.05 0.18,-0.6 0.27,-1.11 0.27,-1.81l0 0z"/>
     <path class="fil2 str1" d="M6.32 14.32c-1.71,-1.36 -1.32,-4.22 -1.15,-5.53 0.16,-1.16 -0.22,-2.31 -0.24,-2.42 -0.19,-0.96 -0.46,-1.86 -0.91,-2.6 -0.63,-1.04 -1.15,-1.45 -1,-1.3 0.35,0.33 0.55,0.32 0.91,0.75 0.45,0.54 0.89,1.95 1.09,2.55 0.32,0.94 0.46,2.51 0.37,3.15 -0.41,2.75 -0.09,3.99 0.93,5.4z"/>
    </g>
    <g>
     <path class="fil1 str0" d="M9.23 6.05l0.18 -1.05 -0.09 1.05c0.06,0.6 0.04,1.03 0.27,1.75 0.2,0.65 0.24,1.37 0,2.16 -0.25,0.5 -0.41,0.69 -0.55,1.1 -0.11,0.47 -0.04,0.51 0.14,0.34 0.14,-0.31 0.28,-0.61 0.42,-0.92 0.32,-0.4 0.44,-0.21 0.26,0.57 -0.3,0.61 -0.59,1.26 -0.84,1.95 -0.16,0.74 0.01,0.87 0.24,0.3 0.1,-0.3 0.12,-0.57 0.19,-0.85 0.07,-0.25 0.17,-0.49 0.28,-0.75 0.18,-0.45 0.64,-0.4 0.45,0.55l-0.59 2.5c-0.07,0.36 -0.07,0.58 0.05,0.6 0.82,-0.31 1.5,-0.98 2,-2.15 -0.13,-0.25 -0.38,-0.36 -0.61,-0.41 0.16,-0.19 0.43,-0.24 0.57,-0.24 -0.37,-0.15 -0.59,-0.55 -0.64,-1.05 0.12,0.08 0.23,0.25 0.36,0.25 -0.13,-0.15 -0.28,-0.44 -0.24,-0.64 0.2,0.34 0.29,0.44 0.55,0.55 -0.17,-0.51 -0.57,-0.71 -0.81,-1.21 -0.27,-0.65 -0.27,-1.35 -0.13,-2.2 0.04,0.25 0.22,0.55 0.36,0.5 -0.36,-0.9 -0.41,-1.75 -0.23,-2.55 0.13,0.61 0.14,1.3 0.5,1.8 -0.03,-0.38 -0.12,-0.63 -0.18,-1 -0.07,-0.51 -0.1,-1.13 -0.04,-1.65 0.09,-0.9 0.41,-1.5 1.05,-2.1 -0.05,0.45 -0.1,0.55 0,0.85 0.18,-0.7 0.41,-1.3 0.82,-1.86 -0.05,0.31 -0.09,0.71 0.04,0.71 0.09,-0.55 0.69,-0.96 1.28,-1.26 -0.14,0.21 -0.23,0.41 -0.23,0.66 0.29,-0.19 0.55,-0.36 0.84,-0.38 0.31,-0.03 0.57,0.01 0.99,0.13 -0.69,0.25 -1.33,0.9 -1.74,1.5l0.28 0.15c-0.32,0.25 -0.6,0.5 -0.73,0.8l0.5 -0.2c-0.28,0.45 -0.46,0.7 -0.79,1 0.2,0 0.29,-0.05 0.5,-0.2 -0.18,0.4 -0.35,0.75 -0.62,1.05 0.13,0.05 0.22,0 0.32,-0.25 0.04,0.6 0.04,1.15 -0.1,1.8 0.14,-0.15 0.23,-0.35 0.28,-0.6 0.13,0.85 0.18,1.35 0.04,2.3 0.14,-0.1 0.19,-0.2 0.28,-0.45 -0.14,1.3 -0.32,2 -0.96,3.05l0.87 -0.1c-0.87,0.3 -0.92,0.3 -1.28,0.7 -0.28,0.3 -0.55,0.65 -0.73,1.05 -0.64,1.1 -1.99,2.11 -2.12,2.16 -0.19,0.19 -0.37,0.1 -0.53,-0.1 -0.12,-0.13 -0.13,-0.61 0.05,-1.11l0.59 -2.35c0.18,-0.8 -0.08,-0.96 -0.27,-0.35 -0.19,0.39 -0.23,1.2 -0.37,1.5 -0.04,0.15 -0.09,0.19 -0.18,0.3 -0.09,0.1 -0.24,0.09 -0.27,0.05 -0.14,-0.15 -0.14,-0.25 -0.05,-0.8 0.27,-0.65 0.61,-1.39 0.89,-2.01 0.14,-0.48 0.13,-0.73 -0.14,-0.25 -0.13,0.27 -0.25,0.54 -0.38,0.81 -0.29,0.27 -0.48,0.25 -0.37,-0.4 0.14,-0.45 0.4,-0.87 0.59,-1.3 0.11,-0.4 0.18,-0.65 0.19,-0.95 0,-0.34 -0.07,-0.74 -0.14,-1.05 -0.18,-0.6 -0.27,-1.1 -0.27,-1.8l0 0z"/>
     <path class="fil2 str1" d="M11.19 14.36c1.72,-1.36 1.33,-4.22 1.15,-5.53 -0.15,-1.16 0.22,-2.31 0.24,-2.42 0.19,-0.96 0.46,-1.86 0.92,-2.6 0.63,-1.03 1.15,-1.45 0.99,-1.3 -0.34,0.33 -0.54,0.32 -0.9,0.75 -0.46,0.54 -0.9,1.95 -1.1,2.55 -0.31,0.94 -0.46,2.51 -0.36,3.15 0.41,2.75 0.08,3.99 -0.94,5.4z"/>
    </g>
   </g>
  </g>
 </g>
</svg>
