<?xml version="1.0" encoding="UTF-8"?>
<!DOCTYPE svg PUBLIC "-//W3C//DTD SVG 1.1//EN" "http://www.w3.org/Graphics/SVG/1.1/DTD/svg11.dtd">
<!-- Creator: CorelDRAW 2021 (64 Bit) -->
<svg xmlns="http://www.w3.org/2000/svg" xml:space="preserve" width="520px" height="520px" version="1.1" style="shape-rendering:geometricPrecision; text-rendering:geometricPrecision; image-rendering:optimizeQuality; fill-rule:evenodd; clip-rule:evenodd"
viewBox="0 0 31.55 31.55"
 xmlns:xlink="http://www.w3.org/1999/xlink"
 xmlns:xodm="http://www.corel.com/coreldraw/odm/2003">
 <defs>
  <style type="text/css">
   <![CDATA[
    .fil0 {fill:none}
    .fil1 {fill:black}
   ]]>
  </style>
 </defs>
 <g id="Camada_x0020_1">
  <metadata id="CorelCorpID_0Corel-Layer"/>
  <g id="_2296703750176">
   <rect class="fil0" width="31.55" height="31.55"/>
   <path class="fil1" d="M11.19 17.4c1.01,-0.85 1.51,-1.99 3.36,-2.95 1.31,-0.67 3.11,-1.43 4.64,-1.53 0.21,0.89 0.36,1.11 0.21,1.96 -3.7,0.4 -5.44,0.68 -8.21,2.52zm9.42 -6.51l5.47 2.33 -4.26 3.46c-0.49,-0.75 -1.07,-4.58 -1.21,-5.79zm0.2 -4.69l0.31 1.14 1.89 -0.02 -0.14 -1.49c-0.52,-3.48 -3.17,-3.21 -6.33,-3.21 -3.02,0 -6.05,0.01 -9.08,0 -3.27,-0.01 -4.58,1.3 -4.59,5.21 0,3.65 0,7.29 0,10.94 0,11.84 -0.46,11.18 8.82,11.18 10.36,0 11.35,1.54 11.35,-8.16l-2.1 -0.06c0,2.21 0.25,3.96 -0.5,5.56 -2.34,0.61 -11.43,0.22 -14.51,0.18 0.64,-1.55 4.2,-6.33 5.34,-7.45 2.12,-2.06 5.64,-3.26 8.06,-3.08l0.44 0.1c0.02,0.01 0.09,0.03 0.13,0.05l0.7 2.9 9.2 -7.18 -11.53 -5.12 0.5 3.1c-1.64,0.74 -3.28,0.94 -5.06,1.91 -1.74,0.95 -2.94,2.03 -3.86,3.41 -1.69,2.53 -3.32,9.39 -3.8,10.44 -0.07,0.15 -0.1,0.19 -0.18,0.32 -0.38,0.56 0.26,-0.05 -0.4,0.41 -0.94,-2 -0.49,-8.06 -0.49,-10.99 0,-2.95 -0.45,-8.97 0.49,-11 1.31,-0.35 13.64,-0.35 14.97,-0.01l0.37 0.92z"/>
  </g>
 </g>
</svg>
