<?xml version="1.0" encoding="UTF-8"?>
<!DOCTYPE svg PUBLIC "-//W3C//DTD SVG 1.1//EN" "http://www.w3.org/Graphics/SVG/1.1/DTD/svg11.dtd">
<!-- Creator: CorelDRAW 2021 (64 Bit) -->
<svg xmlns="http://www.w3.org/2000/svg" xml:space="preserve" width="520px" height="520px" version="1.1" style="shape-rendering:geometricPrecision; text-rendering:geometricPrecision; image-rendering:optimizeQuality; fill-rule:evenodd; clip-rule:evenodd"
viewBox="0 0 17.33 17.33"
 xmlns:xlink="http://www.w3.org/1999/xlink"
 xmlns:xodm="http://www.corel.com/coreldraw/odm/2003">
 <defs>
  <style type="text/css">
   <![CDATA[
    .str0 {stroke:#DEDEDE;stroke-width:0.17;stroke-miterlimit:22.9256}
    .fil0 {fill:none}
    .fil1 {fill:black}
    .fil2 {fill:white}
   ]]>
  </style>
 </defs>
 <g id="Camada_x0020_1">
  <metadata id="CorelCorpID_0Corel-Layer"/>
  <g id="_2296599987088">
   <rect class="fil0" width="17.33" height="17.33"/>
   <path class="fil1" d="M6.14 9.56c0.56,-0.47 0.84,-1.1 1.85,-1.62 0.72,-0.37 1.71,-0.79 2.55,-0.84 0.11,0.48 0.2,0.6 0.11,1.07 -2.03,0.22 -2.98,0.38 -4.51,1.39zm5.18 -3.58l3 1.28 -2.34 1.9c-0.27,-0.41 -0.58,-2.51 -0.66,-3.18zm0.11 -2.58l0.17 0.63 1.04 -0.01 -0.08 -0.82c-0.29,-1.91 -1.74,-1.76 -3.48,-1.76 -1.66,0 -3.32,0.01 -4.98,0 -1.8,-0.01 -2.52,0.71 -2.52,2.86 -0.01,2 0,4.01 0,6.01 0,6.5 -0.26,6.14 4.84,6.14 5.69,0 6.23,0.85 6.23,-4.48l-1.15 -0.04c0,1.22 0.14,2.18 -0.27,3.06 -1.29,0.33 -6.28,0.12 -7.98,0.09 0.36,-0.84 2.31,-3.47 2.94,-4.09 1.16,-1.13 3.1,-1.79 4.42,-1.69l0.24 0.06c0.02,0 0.06,0.01 0.08,0.03l0.38 1.59 5.05 -3.95 -6.33 -2.81 0.28 1.71c-0.9,0.4 -1.8,0.51 -2.78,1.05 -0.96,0.52 -1.62,1.11 -2.12,1.87 -0.93,1.39 -1.83,5.15 -2.09,5.73 -0.04,0.08 -0.05,0.11 -0.1,0.18 -0.2,0.3 0.14,-0.03 -0.22,0.22 -0.51,-1.1 -0.27,-4.43 -0.27,-6.04 0,-1.62 -0.24,-4.92 0.27,-6.04 0.73,-0.19 7.49,-0.19 8.23,0l0.2 0.5z"/>
   <path class="fil2 str0" d="M2.9 12.65c-0.01,0.98 -0.01,1.99 0.08,2.21 1.17,-5.4 3.47,-8.61 7.33,-8.93l-0.28 -1.71 6.33 2.81 -5.05 3.95 -0.38 -1.59c-3.96,1.26 -6.91,3.39 -7.68,5.69l6.4 0.07c1.02,-0.07 1.64,-0.42 1.71,-1.17l0.04 -2.24 1.43 0.02 0.03 2.2c-0.05,2 -1.01,2.61 -3.14,2.6l-5.96 -0.1c-1.66,-0.04 -2.18,-0.8 -2.21,-2.6l-0.04 -9.76c-0.04,-2.18 0.67,-2.88 2.76,-2.88l6.05 0c1.74,0 2.48,0.84 2.58,2.79l-1.62 0.02c-0.21,-0.85 -0.39,-1.2 -1.38,-1.23l-5.74 0.01c-0.71,-0.02 -1.14,0.33 -1.23,1.15l-0.03 8.69z"/>
  </g>
 </g>
</svg>
