<?xml version="1.0" encoding="UTF-8"?>
<!DOCTYPE svg PUBLIC "-//W3C//DTD SVG 1.1//EN" "http://www.w3.org/Graphics/SVG/1.1/DTD/svg11.dtd">
<!-- Creator: CorelDRAW 2018 (64 Bit Versão de avaliação) -->
<svg xmlns="http://www.w3.org/2000/svg" xml:space="preserve" width="30.5149mm" height="30.4701mm" version="1.1" style="shape-rendering:geometricPrecision; text-rendering:geometricPrecision; image-rendering:optimizeQuality; fill-rule:evenodd; clip-rule:evenodd"
viewBox="0 0 784.05 782.9"
 xmlns:xlink="http://www.w3.org/1999/xlink">
 <defs>
  <style type="text/css">
   <![CDATA[
    .fil0 {fill:#2F497C}
   ]]>
  </style>
 </defs>
 <g id="Camada_x0020_1">
  <metadata id="CorelCorpID_0Corel-Layer"/>
  <path class="fil0" d="M491.7 354.11l-1.48 35.59 -63.38 1.72 -0.3 226.87 -96.01 4.42 -0.06 -218.08c-6.31,-3.58 0,0 -6.31,-3.58 -6.34,-3.49 -4.96,-2.74 -6.34,-3.49 -1.77,-0.86 -1.67,-0.83 -13.84,-6.71 -12.79,-4.57 0,0 -18.62,-6.62l-0.33 -61.21c20.48,-13.56 0,0 20.48,-13.56l24.97 -13.64c0.04,-133.85 41.03,-136.06 166.39,-135.78l0.53 72.3c-38.95,10.26 -1.57,1.38 -58.52,16.26 -1.42,0.58 -3.66,0.98 -5.72,2.67l-3.64 53.19 63.79 3.87 -1.58 45.79zm-154.82 -349.37c-200,31.4 -373.17,208.34 -330.3,453.4 33.58,191.95 215.57,359.03 452.32,318.69 190.64,-32.49 356.04,-216.25 320.24,-447.14 -29.27,-188.72 -214.55,-360.7 -442.26,-324.95z"/>
 </g>
</svg>
