<?xml version="1.0" encoding="UTF-8"?>
<!DOCTYPE svg PUBLIC "-//W3C//DTD SVG 1.1//EN" "http://www.w3.org/Graphics/SVG/1.1/DTD/svg11.dtd">
<!-- Creator: CorelDRAW 2021 (64 Bit) -->
<svg xmlns="http://www.w3.org/2000/svg" xml:space="preserve" width="563px" height="563px" version="1.1" style="shape-rendering:geometricPrecision; text-rendering:geometricPrecision; image-rendering:optimizeQuality; fill-rule:evenodd; clip-rule:evenodd"
viewBox="0 0 63.65 63.65"
 xmlns:xlink="http://www.w3.org/1999/xlink"
 xmlns:xodm="http://www.corel.com/coreldraw/odm/2003">
 <defs>
  <style type="text/css">
   <![CDATA[
    .str8 {stroke:#CCCCCC;stroke-width:1.13;stroke-miterlimit:22.9256}
    .str0 {stroke:black;stroke-width:3.54;stroke-miterlimit:22.9256}
    .str7 {stroke:black;stroke-width:2.04;stroke-miterlimit:22.9256}
    .str1 {stroke:black;stroke-width:0.57;stroke-miterlimit:22.9256}
    .str2 {stroke:#666666;stroke-width:0.57;stroke-miterlimit:22.9256}
    .str3 {stroke:#B3B3B3;stroke-width:0.57;stroke-miterlimit:22.9256}
    .str5 {stroke:black;stroke-width:2.83;stroke-miterlimit:22.9256}
    .str4 {stroke:gray;stroke-width:1.47;stroke-miterlimit:22.9256}
    .str6 {stroke:#999999;stroke-width:1.47;stroke-miterlimit:22.9256}
    .fil0 {fill:none}
    .fil1 {fill:black}
    .fil2 {fill:#666666}
    .fil3 {fill:#B3B3B3}
   ]]>
  </style>
 </defs>
 <g id="Camada_x0020_1_0">
  <metadata id="CorelCorpID_0Corel-Layer"/>
  <g id="_2274520282128">
   <rect class="fil0" width="63.65" height="63.65"/>
   <g>
    <g>
     <path class="fil0 str0" d="M5.75 24.96c51.59,0 51.59,0 51.59,0"/>
     <path class="fil0 str0" d="M11.19 6.05l40.71 0c3.01,0 5.44,2.89 5.44,6.45l0 38.69c0,3.56 -2.43,6.45 -5.44,6.45l-40.71 0c-3.01,0 -5.44,-2.89 -5.44,-6.45l0 -38.69c0,-3.56 2.43,-6.45 5.44,-6.45z"/>
    </g>
    <g>
     <g>
      <circle class="fil1 str1" cx="16.22" cy="15.94" r="5.16"/>
      <circle class="fil2 str2" cx="29.33" cy="15.94" r="5.16"/>
      <circle class="fil3 str3" cx="42.64" cy="15.94" r="5.16"/>
     </g>
     <g>
      <g>
       <path class="fil0 str0" d="M12.2 50.02c36.43,-0.13 36.43,-0.13 36.43,-0.13"/>
       <path class="fil0 str4" d="M12.2 46.46c36.43,-0.16 36.43,-0.16 36.43,-0.16"/>
      </g>
      <g>
       <path class="fil0 str5" d="M12.2 40.45c23.53,-0.13 23.53,-0.13 23.53,-0.13"/>
       <path class="fil0 str6" d="M12.2 37.32c23.53,-0.13 23.53,-0.13 23.53,-0.13"/>
      </g>
      <g>
       <path class="fil0 str7" d="M12.2 31.92c10.96,-0.07 10.96,-0.07 10.96,-0.07"/>
       <path class="fil0 str8" d="M12.2 29.62c10.96,-0.05 10.96,-0.05 10.96,-0.05"/>
      </g>
     </g>
    </g>
   </g>
  </g>
 </g>
</svg>
