<?xml version="1.0" encoding="UTF-8"?>
<!DOCTYPE svg PUBLIC "-//W3C//DTD SVG 1.1//EN" "http://www.w3.org/Graphics/SVG/1.1/DTD/svg11.dtd">
<!-- Creator: CorelDRAW 2021 (64 Bit) -->
<svg xmlns="http://www.w3.org/2000/svg" xml:space="preserve" width="563px" height="563px" version="1.1" style="shape-rendering:geometricPrecision; text-rendering:geometricPrecision; image-rendering:optimizeQuality; fill-rule:evenodd; clip-rule:evenodd"
viewBox="0 0 26.82 26.82"
 xmlns:xlink="http://www.w3.org/1999/xlink"
 xmlns:xodm="http://www.corel.com/coreldraw/odm/2003">
 <defs>
  <style type="text/css">
   <![CDATA[
    .str8 {stroke:#E6E6E6;stroke-width:0.48;stroke-miterlimit:22.9256}
    .str0 {stroke:white;stroke-width:1.49;stroke-miterlimit:22.9256}
    .str7 {stroke:white;stroke-width:0.86;stroke-miterlimit:22.9256}
    .str3 {stroke:#CCCCCC;stroke-width:0.24;stroke-miterlimit:22.9256}
    .str2 {stroke:#E6E6E6;stroke-width:0.24;stroke-miterlimit:22.9256}
    .str1 {stroke:#FCFCFC;stroke-width:0.24;stroke-miterlimit:22.9256}
    .str5 {stroke:white;stroke-width:1.19;stroke-miterlimit:22.9256}
    .str6 {stroke:#CCCCCC;stroke-width:0.62;stroke-miterlimit:22.9256}
    .str4 {stroke:#D1D1D1;stroke-width:0.62;stroke-miterlimit:22.9256}
    .fil0 {fill:none}
    .fil3 {fill:#CCCCCC}
    .fil2 {fill:#E6E6E6}
    .fil1 {fill:white}
   ]]>
  </style>
 </defs>
 <g id="Camada_x0020_1_0">
  <metadata id="CorelCorpID_0Corel-Layer"/>
  <g id="_2310714379360">
   <rect class="fil0" width="26.82" height="26.82"/>
   <path class="fil0 str0" d="M2.42 10.52c21.74,0 21.74,0 21.74,0"/>
   <path class="fil0 str0" d="M4.71 2.55l17.16 0c1.27,0 2.29,1.22 2.29,2.72l0 16.3c0,1.5 -1.02,2.72 -2.29,2.72l-17.16 0c-1.26,0 -2.29,-1.22 -2.29,-2.72l0 -16.3c0,-1.5 1.03,-2.72 2.29,-2.72z"/>
   <circle class="fil1 str1" cx="6.84" cy="6.72" r="2.17"/>
   <circle class="fil2 str2" cx="17.64" cy="6.72" r="2.17"/>
   <circle class="fil3 str3" cx="12.4" cy="6.72" r="2.17"/>
   <path class="fil0 str0" d="M5.14 21.08c15.35,-0.06 15.35,-0.06 15.35,-0.06"/>
   <path class="fil0 str4" d="M5.14 19.58c15.35,-0.07 15.35,-0.07 15.35,-0.07"/>
   <path class="fil0 str5" d="M5.14 17.04c9.92,-0.05 9.92,-0.05 9.92,-0.05"/>
   <path class="fil0 str6" d="M5.14 15.73c9.92,-0.06 9.92,-0.06 9.92,-0.06"/>
   <path class="fil0 str7" d="M5.14 13.45c4.62,-0.03 4.62,-0.03 4.62,-0.03"/>
   <path class="fil0 str8" d="M5.14 12.48c4.62,-0.02 4.62,-0.02 4.62,-0.02"/>
  </g>
 </g>
</svg>
