<?xml version="1.0" encoding="UTF-8"?>
<!DOCTYPE svg PUBLIC "-//W3C//DTD SVG 1.0//EN" "http://www.w3.org/TR/2001/REC-SVG-20010904/DTD/svg10.dtd">
<!-- Creator: CorelDRAW 2018 (64 Bit Versão de avaliação) -->
<svg xmlns="http://www.w3.org/2000/svg" xml:space="preserve" width="988px" height="878px" version="1.0" style="shape-rendering:geometricPrecision; text-rendering:geometricPrecision; image-rendering:optimizeQuality; fill-rule:evenodd; clip-rule:evenodd"
viewBox="0 0 1075.78 955.63"
 xmlns:xlink="http://www.w3.org/1999/xlink">
 <defs>
  <style type="text/css">
   <![CDATA[
    .str0 {stroke:black;stroke-width:43.54;stroke-linecap:square;stroke-linejoin:round;stroke-miterlimit:22.9256}
    .fil0 {fill:none}
   ]]>
  </style>
 </defs>
 <g id="Camada_x0020_1">
  <metadata id="CorelCorpID_0Corel-Layer"/>
  <path class="fil0 str0" d="M821.59 844.74c0,-106.96 0,-213.92 0,-320.87 41.87,0.09 83.75,0.17 125.63,0.27 -62.11,-64.17 -124.21,-128.35 -186.31,-192.52 0.31,-54.51 0.63,-109.02 0.94,-163.53 -32.37,-0.67 -63.55,-1.22 -95.97,-0.97 -1.57,0.01 -1.1,0 -1.36,19.05 -0.18,14 -0.59,32.81 -0.38,46.22 0.03,1.54 -15.12,-15.51 -36.2,-36.47 -23.2,-23.06 -52.83,-51.72 -71.07,-69.34 -10.23,-9.87 -16.08,-17.06 -17.77,-15.47 -3.91,3.67 -17.2,13.03 -31.27,29.31 -54.19,62.7 -318.78,321.67 -379.17,382.1 -0.96,0.95 5.11,0.21 13.3,0.43 19.82,0.55 60.34,0.4 87.35,0.29 15.21,-0.06 25,-0.28 25.02,1.45 0.17,18.42 1.53,47.53 1.83,90.42 0.65,93.61 3.2,226.11 3.39,226.11 37.12,0.41 453.43,3.12 562.04,3.52"/>
  <rect class="fil0" width="1075.78" height="955.63"/>
 </g>
</svg>
