<?xml version="1.0" encoding="UTF-8"?>
<!DOCTYPE svg PUBLIC "-//W3C//DTD SVG 1.1//EN" "http://www.w3.org/Graphics/SVG/1.1/DTD/svg11.dtd">
<!-- Creator: CorelDRAW 2018 (64 Bit Versão de avaliação) -->
<svg xmlns="http://www.w3.org/2000/svg" xml:space="preserve" width="47.9459mm" height="47.8762mm" version="1.1" style="shape-rendering:geometricPrecision; text-rendering:geometricPrecision; image-rendering:optimizeQuality; fill-rule:evenodd; clip-rule:evenodd"
viewBox="0 0 14466.11 14445.08"
 xmlns:xlink="http://www.w3.org/1999/xlink">
 <defs>
  <style type="text/css">
   <![CDATA[
    .fil0 {fill:#3E5EA1}
    .fil1 {fill:#D7DDEB}
    .fil2 {fill:#FCFCFC}
   ]]>
  </style>
 </defs>
 <g id="Camada_x0020_1">
  <metadata id="CorelCorpID_0Corel-Layer"/>
  <path class="fil0" d="M5451.67 3661.58c794.6,-135.77 2639.69,-129.68 3493.74,-46.55 1130.6,110.07 1711.25,583.55 1894.45,1629.64 127.14,725.75 130.01,2919.69 49.96,3675.01 -114.8,1083.47 -685.74,1697.22 -1687.69,1867.9 -729.16,124.22 -2903.34,125.76 -3655.37,38.8 -1120.31,-129.56 -1661.13,-661.82 -1840.42,-1732.76 -111.64,-667.16 -116.58,-2841.39 -33.25,-3558.6 139.91,-1203.61 655.84,-1681.59 1778.56,-1873.42zm496.23 -2228.33c-7759.11,1903.84 -4945.57,13348.43 2698.44,11581.93 2793.75,-645.61 5252.6,-3494.37 4442,-7100.19 -626.09,-2785 -3550.13,-5362.66 -7140.44,-4481.74z"/>
  <path class="fil1" d="M5906.51 1433.25c3590.32,-880.92 6514.38,1696.77 7140.44,4481.74 810.62,3605.82 -1648.25,6454.58 -4442,7100.19 -7643.98,1766.49 -10457.55,-9678.1 -2698.44,-11581.93zm-5872.69 6526.3c177.47,1905.07 1123.57,3578.04 2518.83,4727.4 5175.12,4263.15 12486.75,224.99 11877.74,-6241.93 -344.23,-3655.28 -3762.72,-6790.96 -7920.02,-6414.24 -3763.65,341.06 -6870.74,3696.64 -6476.54,7928.77z"/>
  <path class="fil0" d="M5418.24 7408.1c-197.75,-2581.49 3487.07,-2708.58 3709.55,-407.32 110.82,1146.01 -640.46,2005.21 -1675.77,2075.24 -1069.83,72.32 -1962.37,-735.86 -2033.79,-1667.92zm3706.33 -2457.34c281.65,-38.41 535.46,159.43 505.71,463.17 -26.31,291.37 -517.38,429.25 -701.73,204.14 -200.88,-263.61 -135.56,-576.22 196.03,-667.31zm-3698.33 -609.74c-990.87,260.08 -1082.56,674.19 -1108.33,1819.66 -69.7,3096.37 -280.75,3962.54 1891.28,4027.05 664.62,19.76 2421.19,64.93 2995.6,-72.32 883.76,-211.2 1015.22,-895.17 1040.59,-1875.29 72.17,-2786.45 308.75,-3919.13 -1954.98,-3986.11 -809.18,-23.99 -2149.55,-100.53 -2864.17,87.02z"/>
  <path class="fil2" d="M5426.24 4341.02c714.62,-187.55 2055,-111 2864.17,-87.02 2263.72,66.98 2027.15,1199.66 1954.98,3986.11 -25.37,980.13 -156.83,1664.09 -1040.59,1875.29 -574.41,137.25 -2330.98,92.08 -2995.6,72.32 -2172.03,-64.51 -1960.98,-930.68 -1891.28,-4027.05 25.77,-1145.47 117.46,-1559.58 1108.33,-1819.66zm25.43 -679.44c-1122.72,191.83 -1638.66,669.81 -1778.56,1873.42 -83.33,717.21 -78.39,2891.45 33.25,3558.6 179.28,1070.95 720.11,1603.21 1840.42,1732.76 752.03,86.95 2926.21,85.42 3655.37,-38.8 1001.94,-170.68 1572.88,-784.43 1687.69,-1867.9 80.05,-755.32 77.18,-2949.26 -49.96,-3675.01 -183.2,-1046.08 -763.86,-1519.57 -1894.45,-1629.64 -854.04,-83.12 -2699.13,-89.22 -3493.74,46.55z"/>
  <path class="fil2" d="M6086.48 7408.1c-189.72,-1626.71 2125.54,-1823.91 2359.43,-397.45 273.84,1670.16 -2191.95,1833.29 -2359.43,397.45zm-668.24 0c71.42,932.07 963.96,1740.25 2033.79,1667.92 1035.31,-70.03 1786.59,-929.23 1675.77,-2075.24 -222.49,-2301.26 -3907.3,-2174.18 -3709.55,407.32z"/>
  <path class="fil0" d="M6086.48 7408.1c167.48,1435.84 2633.27,1272.7 2359.43,-397.45 -233.89,-1426.46 -2549.15,-1229.26 -2359.43,397.45z"/>
  <path class="fil2" d="M8841.1 5501.76c93.74,269.1 410.46,282.92 629.56,168.78 243.4,-172.46 195.21,-509.06 -24.95,-655.48 -120.69,-70.33 -199.31,-83.18 -400.53,-36.18 -194.31,131.46 -268.44,272.03 -204.08,522.88z"/>
 </g>
</svg>
