<?xml version="1.0" encoding="UTF-8"?>
<!DOCTYPE svg PUBLIC "-//W3C//DTD SVG 1.1//EN" "http://www.w3.org/Graphics/SVG/1.1/DTD/svg11.dtd">
<!-- Creator: CorelDRAW 2018 (64 Bit Versão de avaliação) -->
<svg xmlns="http://www.w3.org/2000/svg" xml:space="preserve" width="36.9848mm" height="36.9506mm" version="1.1" style="shape-rendering:geometricPrecision; text-rendering:geometricPrecision; image-rendering:optimizeQuality; fill-rule:evenodd; clip-rule:evenodd"
viewBox="0 0 2546.45 2544.09"
 xmlns:xlink="http://www.w3.org/1999/xlink">
 <defs>
  <style type="text/css">
   <![CDATA[
    .fil0 {fill:#E64B88}
    .fil1 {fill:#F9D9E6}
   ]]>
  </style>
 </defs>
 <g id="Camada_x0020_1">
  <metadata id="CorelCorpID_0Corel-Layer"/>
  <g id="_2538290436032">
   <path class="fil0" d="M1895.8 1439.95c-214.46,815.23 -1482.72,494.1 -1239.94,-356.07 219.44,-768.46 1463.43,-493.46 1239.94,356.07zm-806.36 -1199.18c-517.35,101.98 -967.92,585.56 -843.97,1239.28 93.77,494.59 614.56,946.15 1241.69,819.17 501.57,-101.55 938.2,-589.19 817.81,-1227.29 -94.57,-501.22 -588.91,-954.68 -1215.53,-831.16z"/>
   <path class="fil1" d="M1089.44 240.77c626.62,-123.52 1120.97,329.93 1215.53,831.16 120.39,638.1 -316.24,1125.74 -817.81,1227.29 -627.13,126.98 -1147.92,-324.58 -1241.69,-819.17 -123.95,-653.72 326.62,-1137.3 843.97,-1239.28zm-1085.71 1126.28c51.74,683.82 621.64,1226.26 1376.03,1173.49 673.67,-47.12 1213.43,-633.37 1163.48,-1368.69 -46.05,-677.87 -623.17,-1226.71 -1384.18,-1167.47 -642.88,50.05 -1210.56,632.6 -1155.32,1362.67z"/>
   <path class="fil1" d="M955.47 1717.28c61.86,-153.21 221.85,-279.35 398.78,-338.87 57.8,60.51 109.42,285.97 117.74,394.48 -314.13,69.56 -279.54,22.88 -516.51,-55.61zm764.08 -153.7c-45.52,56.31 -84.22,94.48 -133.04,133.16l-95.9 -367.06 280.91 28.5 5.49 112.58c-11.36,34.24 -34.74,64.73 -57.46,92.83zm-980.83 -300.71c104.73,-4.05 212.01,-8.14 313.36,-24.09 276.16,-43.47 210.29,-82.85 256.33,10.91 -7.55,19.97 -188.78,110.46 -237.83,149.23 -74.04,58.54 -144.43,130.19 -202.33,207.72 -91.06,-97.09 -119.67,-170.03 -129.53,-343.77zm672.04 -116.65c122.92,-75.81 186.79,-122.91 283.7,-192 71.92,76.87 102.29,153.99 113.27,293.58l-365.39 -16.95 -31.58 -84.63zm-654.77 -2.47c49.42,-159.16 136.53,-294.63 282.36,-343.33 97.11,98.12 109.24,164.35 183.55,275.04 -92.16,63.24 -329.69,87.28 -465.91,68.29zm591.36 -98.41c-49.99,-115.13 -125.04,-193.53 -173.68,-297.28 180.67,-29.88 382.13,21.62 444.24,137.2 -51.31,48.66 -166.23,130.29 -270.56,160.08zm548.45 394.62c223.48,-849.53 -1020.5,-1124.53 -1239.94,-356.07 -242.78,850.17 1025.48,1171.3 1239.94,356.07z"/>
   <path class="fil0" d="M955.47 1717.28c236.98,78.49 202.39,125.17 516.51,55.61 -8.32,-108.52 -59.93,-333.97 -117.74,-394.48 -176.93,59.52 -336.92,185.66 -398.78,338.87z"/>
   <path class="fil0" d="M738.71 1262.86c9.86,173.74 38.47,246.69 129.53,343.77 57.9,-77.53 128.28,-149.18 202.33,-207.72 49.05,-38.78 230.29,-129.27 237.83,-149.23 -46.05,-93.76 19.82,-54.38 -256.33,-10.91 -101.34,15.95 -208.63,20.04 -313.36,24.09z"/>
   <path class="fil0" d="M755.99 1143.74c136.22,18.98 373.75,-5.05 465.91,-68.29 -74.31,-110.69 -86.44,-176.92 -183.55,-275.04 -145.83,48.71 -232.94,184.17 -282.36,343.33z"/>
   <path class="fil0" d="M1347.35 1045.33c104.33,-29.79 219.25,-111.42 270.56,-160.08 -62.11,-115.58 -263.57,-167.08 -444.24,-137.2 48.64,103.75 123.7,182.15 173.68,297.28z"/>
   <path class="fil0" d="M1410.75 1146.21l31.58 84.63 365.39 16.95c-10.98,-139.6 -41.35,-216.71 -113.27,-293.58 -96.91,69.09 -160.78,116.19 -283.7,192z"/>
   <path class="fil0" d="M1586.5 1696.73c48.82,-38.68 87.52,-76.85 133.04,-133.16 22.72,-28.1 46.1,-58.59 57.46,-92.83l-5.49 -112.58 -280.91 -28.5 95.9 367.06z"/>
  </g>
 </g>
</svg>
