<?xml version="1.0" encoding="UTF-8"?>
<!DOCTYPE svg PUBLIC "-//W3C//DTD SVG 1.0//EN" "http://www.w3.org/TR/2001/REC-SVG-20010904/DTD/svg10.dtd">
<!-- Creator: CorelDRAW 2018 (64 Bit Versão de avaliação) -->
<svg xmlns="http://www.w3.org/2000/svg" xml:space="preserve" width="988px" height="878px" version="1.0" style="shape-rendering:geometricPrecision; text-rendering:geometricPrecision; image-rendering:optimizeQuality; fill-rule:evenodd; clip-rule:evenodd"
viewBox="0 0 1054.47 936.7"
 xmlns:xlink="http://www.w3.org/1999/xlink">
 <defs>
  <style type="text/css">
   <![CDATA[
    .str0 {stroke:black;stroke-width:32;stroke-miterlimit:22.9256}
    .fil0 {fill:none}
    .fil1 {fill:black}
   ]]>
  </style>
 </defs>
 <g id="Camada_x0020_1">
  <metadata id="CorelCorpID_0Corel-Layer"/>
  <rect class="fil0" width="1054.47" height="936.7"/>
  <g id="_2816772138080">
   <line class="fil0 str0" x1="214.89" y1="877.69" x2="214.89" y2= "787.52" />
   <path class="fil0 str0" d="M115.52 878.77l0 -139.31c10.68,-40.91 28.35,-72.62 91.93,-91.93l0 0 158.9 -27.94c8.11,0.79 16.18,-3.24 20.52,-7.58 3.6,-3.54 3.41,-11.15 3.24,-16.17l0 -55.08"/>
   <path class="fil0 str0" d="M477.04 727.05c-54.17,-1.07 -118.08,-41.72 -110.69,-106.51l-4.38 -0.18"/>
   <path class="fil0 str0" d="M669.81 509.98c-24.05,17.89 -37.31,42.8 -44.62,73.11 -5.23,28.88 -4.57,64.19 10.19,80.12l-3.37 3.36 -186.82 186.84c20.34,19.43 41.75,27.53 72.35,19.43l24.3 -24.29 50.21 -15.67 21.6 -58.85 59.41 -4.86 33.07 -39.34c104.8,38.67 173.64,-42.23 177.39,-116.43 3.31,-66.01 -51.45,-135.21 -127.28,-130.75"/>
   <line class="fil0 str0" x1="831.04" y1="789.7" x2="831.04" y2= "877.16" />
   <ellipse class="fil0 str0" cx="777.04" cy="552.67" rx="38.12" ry="37.34"/>
   <path class="fil0 str0" d="M301.2 354.58c-1.37,-7.08 -26.68,-1.06 -29.19,12.91 -1.54,8.45 -3.15,21.49 5.85,42.45 1.27,28.84 23.57,44.8 43.44,41.73l0 0c56.92,156.04 262.24,133.91 308.86,0l0 0c10.46,1.39 24.05,-0.16 32.04,-10.91 5.29,-7.1 9.59,-19.27 9.55,-34.45 11.4,-21.99 8.72,-28.84 3.41,-40.18 -3.51,-7.47 -17.41,-14.39 -27.33,-13.12l-4.7 1.47"/>
   <path class="fil0 str0" d="M651.77 319.92c7.56,-20.52 -28.94,-62.42 -63.72,-63.72l0 0c-80.18,68.04 -141.21,73.44 -228.95,0l0 0c-18.22,-0.14 -54.77,12.3 -56.42,32.67l-5.68 29.43"/>
   <path class="fil0 str0" d="M302.16 363.44c-14.54,-68.2 -18.15,-124.35 24.55,-179.6l0 0"/>
   <path class="fil0 str0" d="M410.94 119.04c33.09,-12.1 106.2,-22.53 166.55,23.19 62.8,47.57 90.83,115.73 69.31,215.77l-0.96 4.07"/>
   <path class="fil0 str0" d="M413.75 460.34c30.19,38.87 88.52,38.06 123.03,-1.9l-9.55 9.91"/>
   <ellipse class="fil1 str0" cx="369.38" cy="149.72" rx="10.88" ry="10.65"/>
   <ellipse class="fil1 str0" cx="707.61" cy="490.84" rx="10.88" ry="10.65"/>
  </g>
 </g>
</svg>
