<?xml version="1.0" encoding="UTF-8"?>
<!DOCTYPE svg PUBLIC "-//W3C//DTD SVG 1.1//EN" "http://www.w3.org/Graphics/SVG/1.1/DTD/svg11.dtd">
<!-- Creator: CorelDRAW 2021 (64 Bit) -->
<svg xmlns="http://www.w3.org/2000/svg" xml:space="preserve" width="525px" height="520px" version="1.1" style="shape-rendering:geometricPrecision; text-rendering:geometricPrecision; image-rendering:optimizeQuality; fill-rule:evenodd; clip-rule:evenodd"
viewBox="0 0 6.7 6.63"
 xmlns:xlink="http://www.w3.org/1999/xlink"
 xmlns:xodm="http://www.corel.com/coreldraw/odm/2003">
 <defs>
  <style type="text/css">
   <![CDATA[
    .str0 {stroke:white;stroke-width:0.19;stroke-miterlimit:22.9256}
    .fil0 {fill:none}
    .fil1 {fill:white}
   ]]>
  </style>
 </defs>
 <g id="Camada_x0020_1">
  <metadata id="CorelCorpID_0Corel-Layer"/>
  <g id="_2392152658928">
   <rect class="fil0" width="6.7" height="6.63"/>
   <g>
    <path class="fil0 str0" d="M3.35 2.86c0.02,-0.18 0.23,-0.37 0.42,-0.31l0.1 -0.05 1.84 -1.92 0.21 0.32 -1.76 1.86 -0.06 0.07c0.09,0.18 -0.11,0.38 -0.2,0.4 0.05,0.03 0.03,0.15 -0.01,0.24l-0.36 1.17 -0.2 -0.21 -0.26 -0.25 -0.2 -0.19 -0.2 -0.18 -0.19 -0.16 -0.17 -0.16c0.29,-0.17 0.54,-0.34 0.83,-0.51 0.02,-0.1 0.17,-0.14 0.21,-0.12z"/>
    <line class="fil0 str0" x1="2.49" y1="3.66" x2="3.18" y2= "3.18" />
    <line class="fil0 str0" x1="3.33" y1="4.43" x2="3.73" y2= "3.46" />
    <line class="fil0 str0" x1="3.13" y1="4.23" x2="3.54" y2= "3.51" />
    <line class="fil0 str0" x1="2.91" y1="4.03" x2="3.6" y2= "3.14" />
    <line class="fil0 str0" x1="2.66" y1="3.81" x2="3.22" y2= "3.31" />
   </g>
   <g>
    <path class="fil1" d="M1.97 4.04c-0.1,-0.23 -0.7,-1.11 -0.28,-1.24 0.12,-0.04 0.39,-0.06 0.51,-0.02 0.02,0.01 0.04,-0.07 0.05,-0.09 0.16,0.21 -0.13,0.18 -0.25,0.2 -0.21,0.04 -0.26,0.03 -0.22,0.17 0.1,0.3 0.4,0.63 0.55,0.92 0.02,0.08 -0.04,0.17 -0.14,0.18 -0.1,0.02 -0.2,-0.03 -0.22,-0.12z"/>
   </g>
   <path class="fil0" d="M2.15 4.01c-0.05,-0.17 -0.72,-1.03 -0.42,-1.13 0.41,-0.14 0.55,0.06 0.52,-0.19"/>
   <g>
    <path class="fil1" d="M2 4.69c0.25,-0.15 0.72,-0.12 1.07,0.06 0.58,0.29 0.41,0.17 1.08,0.19 0.2,0 0.73,0.07 0.77,0.2l0 0c0.06,0.01 0.31,0.06 0.32,0.07l-0.19 0.01c-0.28,0 -0.27,-0.06 -0.33,-0.09 -0.04,0 -0.25,-0.08 -0.67,-0.04 -0.46,0.05 -0.66,0.05 -1.13,-0.15 -0.04,-0.01 -0.35,-0.18 -0.44,-0.1 -0.06,0.06 -0.22,0.06 -0.35,0.02 -0.13,-0.04 -0.19,-0.11 -0.13,-0.17zm2.92 0.45c-0.01,0 -0.01,0 -0.01,0l-0.01 0c0.01,0 0.01,0 0.02,0z"/>
   </g>
   <path class="fil0" d="M2.24 4.77c0.13,-0.11 0.49,-0.06 0.67,0.04 0.85,0.45 0.93,0.05 1.8,0.27 0.25,0.06 -0.09,0.09 0.53,0.13"/>
   <g>
    <g>
     <g>
      <path class="fil1" d="M1.53 3.83c0.09,0.12 0.1,0.12 0.13,0.26 0.03,0.15 0.16,0.17 0.28,0.28 0.08,0.08 0.04,0.09 0.11,0.14l0.02 0.01c-0.07,0.04 -0.12,-0.03 -0.2,-0.08 -0.15,-0.08 -0.24,-0.08 -0.34,-0.21 -0.11,-0.14 -0.01,-0.1 -0.18,-0.27 -0.04,-0.05 -0.04,-0.11 0.01,-0.15 0.05,-0.03 0.13,-0.02 0.17,0.02z"/>
     </g>
     <path class="fil0" d="M1.44 3.89c0.2,0.21 0.04,0.16 0.22,0.37 0.01,0.01 0.22,0.11 0.35,0.24 0.01,0.02 0.04,0.02 0.06,0.02"/>
    </g>
    <g>
     <path class="fil1" d="M1.34 3.95c-0.1,-0.12 -0.11,-0.12 -0.14,-0.26 -0.04,-0.14 -0.17,-0.16 -0.29,-0.27 -0.08,-0.08 -0.05,-0.08 -0.12,-0.13l-0.02 -0.02c0.08,-0.04 0.12,0.03 0.21,0.08 0.14,0.08 0.23,0.08 0.34,0.2 0.12,0.14 0.01,0.11 0.19,0.27 0.04,0.04 0.04,0.11 -0.01,0.14 -0.05,0.04 -0.12,0.03 -0.16,-0.01z"/>
    </g>
    <path class="fil0" d="M1.42 3.89c-0.2,-0.21 -0.05,-0.16 -0.23,-0.37 -0.01,-0.01 -0.23,-0.09 -0.35,-0.23 -0.02,-0.02 -0.04,-0.01 -0.07,-0.02"/>
   </g>
   <g>
    <g>
     <g>
      <path class="fil1" d="M2.97 5.29c0.1,0.12 0.11,0.12 0.14,0.26 0.03,0.15 0.16,0.17 0.27,0.28 0.08,0.08 0.05,0.09 0.12,0.13l0.02 0.02c-0.08,0.04 -0.12,-0.03 -0.21,-0.08 -0.14,-0.08 -0.23,-0.08 -0.33,-0.21 -0.11,-0.14 -0.01,-0.11 -0.18,-0.28 -0.04,-0.04 -0.04,-0.1 0.01,-0.14 0.05,-0.03 0.12,-0.03 0.16,0.02z"/>
     </g>
     <path class="fil0" d="M2.89 5.35c0.19,0.21 0.04,0.16 0.22,0.37 0.01,0.01 0.22,0.1 0.34,0.24 0.02,0.02 0.04,0.01 0.07,0.02"/>
    </g>
    <g>
     <path class="fil1" d="M2.78 5.41c-0.09,-0.12 -0.11,-0.12 -0.14,-0.26 -0.03,-0.15 -0.16,-0.17 -0.28,-0.27 -0.08,-0.08 -0.05,-0.09 -0.12,-0.13l-0.02 -0.02c0.07,-0.04 0.12,0.03 0.21,0.07 0.14,0.08 0.23,0.08 0.33,0.21 0.12,0.13 0.02,0.1 0.2,0.27 0.04,0.04 0.04,0.11 -0.01,0.14 -0.05,0.04 -0.12,0.03 -0.17,-0.01z"/>
    </g>
    <path class="fil0" d="M2.87 5.34c-0.21,-0.2 -0.05,-0.15 -0.24,-0.36 -0.01,-0.01 -0.22,-0.1 -0.35,-0.23 -0.01,-0.02 -0.04,-0.01 -0.06,-0.02"/>
   </g>
   <g>
    <g>
     <g>
      <path class="fil1" d="M1.71 4.79c0.09,0.12 0.1,0.13 0.13,0.26 0.03,0.15 0.16,0.17 0.28,0.29 0.08,0.07 0.05,0.08 0.11,0.13l0.02 0.01c-0.07,0.05 -0.12,-0.03 -0.2,-0.07 -0.14,-0.09 -0.23,-0.09 -0.33,-0.21 -0.12,-0.15 -0.02,-0.11 -0.19,-0.28 -0.04,-0.05 -0.03,-0.11 0.02,-0.14 0.04,-0.04 0.12,-0.03 0.16,0.01z"/>
     </g>
     <path class="fil0" d="M1.62 4.86c0.2,0.21 0.05,0.16 0.23,0.36 0.01,0.01 0.21,0.11 0.34,0.25 0.01,0.01 0.04,0.01 0.06,0.01"/>
    </g>
    <g>
     <path class="fil1" d="M1.52 4.91c-0.1,-0.12 -0.11,-0.12 -0.14,-0.25 -0.04,-0.15 -0.17,-0.17 -0.29,-0.28 -0.08,-0.08 -0.05,-0.08 -0.12,-0.13l-0.01 -0.01c0.07,-0.05 0.12,0.02 0.2,0.07 0.14,0.08 0.24,0.08 0.34,0.2 0.12,0.14 0.02,0.11 0.19,0.27 0.04,0.05 0.04,0.11 -0.01,0.15 -0.05,0.03 -0.12,0.03 -0.16,-0.02z"/>
    </g>
    <path class="fil0" d="M1.61 4.85c-0.21,-0.21 -0.05,-0.16 -0.24,-0.36 -0.01,-0.02 -0.22,-0.1 -0.35,-0.24 -0.02,-0.02 -0.04,-0.01 -0.06,-0.01"/>
   </g>
  </g>
 </g>
</svg>
