<?xml version="1.0" encoding="UTF-8"?>
<!DOCTYPE svg PUBLIC "-//W3C//DTD SVG 1.1//EN" "http://www.w3.org/Graphics/SVG/1.1/DTD/svg11.dtd">
<!-- Creator: CorelDRAW 2021 (64 Bit) -->
<svg xmlns="http://www.w3.org/2000/svg" xml:space="preserve" width="525px" height="520px" version="1.1" style="shape-rendering:geometricPrecision; text-rendering:geometricPrecision; image-rendering:optimizeQuality; fill-rule:evenodd; clip-rule:evenodd"
viewBox="0 0 38.52 38.16"
 xmlns:xlink="http://www.w3.org/1999/xlink"
 xmlns:xodm="http://www.corel.com/coreldraw/odm/2003">
 <defs>
  <style type="text/css">
   <![CDATA[
    .str0 {stroke:black;stroke-width:1.1;stroke-miterlimit:22.9256}
    .fil0 {fill:none}
    .fil1 {fill:black}
   ]]>
  </style>
 </defs>
 <g id="Camada_x0020_1">
  <metadata id="CorelCorpID_0Corel-Layer"/>
  <g id="_2392203051312">
   <rect class="fil0" width="38.52" height="38.16"/>
   <g>
    <path class="fil0 str0" d="M19.28 16.46c0.11,-1.06 1.31,-2.15 2.38,-1.8l0.61 -0.27 10.58 -11.03 1.21 1.84 -10.11 10.69 -0.36 0.39c0.53,1.02 -0.62,2.16 -1.14,2.3 0.29,0.18 0.17,0.88 -0.05,1.41l-2.1 6.69 -1.13 -1.21 -1.49 -1.44 -1.18 -1.06 -1.16 -1.04 -1.05 -0.92 -1.03 -0.92c1.69,-1.02 3.13,-1.96 4.81,-2.97 0.12,-0.57 0.95,-0.81 1.21,-0.66z"/>
    <line class="fil0 str0" x1="14.32" y1="21.06" x2="18.32" y2= "18.27" />
    <line class="fil0 str0" x1="19.17" y1="25.46" x2="21.48" y2= "19.9" />
    <line class="fil0 str0" x1="17.98" y1="24.34" x2="20.38" y2= "20.16" />
    <line class="fil0 str0" x1="16.72" y1="23.2" x2="20.73" y2= "18.08" />
    <line class="fil0 str0" x1="15.3" y1="21.9" x2="18.5" y2= "19.04" />
   </g>
   <g>
    <path class="fil1" d="M11.32 23.26c-0.56,-1.37 -4.03,-6.4 -1.59,-7.16 0.67,-0.21 2.21,-0.33 2.91,-0.11 0.11,0.04 0.25,-0.4 0.33,-0.53 0.9,1.22 -0.77,1.06 -1.48,1.18 -1.2,0.19 -1.47,0.14 -1.22,0.96 0.52,1.7 2.28,3.61 3.13,5.3 0.14,0.48 -0.22,0.95 -0.79,1.05 -0.57,0.1 -1.15,-0.21 -1.29,-0.69z"/>
   </g>
   <path class="fil0" d="M12.36 23.08c-0.29,-1.01 -4.12,-5.92 -2.39,-6.52 2.33,-0.81 3.16,0.38 3,-1.1"/>
   <g>
    <path class="fil1" d="M11.52 27c1.44,-0.91 4.12,-0.69 6.15,0.33 3.33,1.67 2.34,0.99 6.18,1.06 1.17,0.02 4.24,0.44 4.44,1.17l-0.01 0c0.35,0.09 1.83,0.38 1.84,0.38l-1.07 0.09c-1.64,0.02 -1.56,-0.34 -1.91,-0.53 -0.21,0.01 -1.42,-0.46 -3.86,-0.22 -2.64,0.26 -3.81,0.31 -6.48,-0.84 -0.23,-0.09 -2.03,-1.06 -2.52,-0.58 -0.36,0.3 -1.27,0.34 -2.03,0.11 -0.77,-0.24 -1.09,-0.67 -0.73,-0.97zm16.75 2.56c-0.02,-0.01 -0.02,-0.02 -0.05,-0.02l-0.01 0c0.01,0 0.03,0.01 0.06,0.02z"/>
   </g>
   <path class="fil0" d="M12.9 27.43c0.75,-0.61 2.81,-0.32 3.84,0.23 4.9,2.59 5.36,0.29 10.34,1.53 1.43,0.36 -0.49,0.56 3.04,0.75"/>
   <g>
    <g>
     <g>
      <path class="fil1" d="M8.78 22.03c0.55,0.7 0.61,0.71 0.77,1.5 0.17,0.85 0.93,0.99 1.59,1.63 0.46,0.45 0.27,0.48 0.66,0.76l0.09 0.09c-0.41,0.24 -0.68,-0.17 -1.15,-0.45 -0.82,-0.47 -1.34,-0.49 -1.92,-1.21 -0.66,-0.81 -0.08,-0.62 -1.06,-1.6 -0.23,-0.25 -0.2,-0.61 0.08,-0.81 0.28,-0.2 0.71,-0.16 0.94,0.09z"/>
     </g>
     <path class="fil0" d="M8.27 22.39c1.15,1.22 0.26,0.92 1.29,2.12 0.06,0.07 1.27,0.6 1.97,1.4 0.1,0.1 0.24,0.07 0.36,0.1"/>
    </g>
    <g>
     <path class="fil1" d="M7.69 22.73c-0.57,-0.69 -0.63,-0.69 -0.82,-1.48 -0.2,-0.85 -0.95,-0.96 -1.63,-1.59 -0.48,-0.44 -0.29,-0.48 -0.69,-0.74l-0.1 -0.09c0.41,-0.25 0.69,0.15 1.17,0.41 0.83,0.46 1.36,0.46 1.96,1.17 0.68,0.8 0.1,0.62 1.1,1.57 0.25,0.25 0.23,0.62 -0.05,0.82 -0.27,0.21 -0.7,0.18 -0.94,-0.07z"/>
    </g>
    <path class="fil0" d="M8.18 22.36c-1.18,-1.19 -0.28,-0.92 -1.35,-2.09 -0.06,-0.07 -1.28,-0.57 -2.01,-1.35 -0.1,-0.1 -0.24,-0.06 -0.37,-0.09"/>
   </g>
   <g>
    <g>
     <g>
      <path class="fil1" d="M17.11 30.42c0.54,0.7 0.61,0.7 0.77,1.49 0.17,0.85 0.92,0.99 1.58,1.63 0.46,0.45 0.28,0.48 0.67,0.76l0.09 0.09c-0.42,0.24 -0.69,-0.17 -1.16,-0.44 -0.81,-0.48 -1.34,-0.5 -1.92,-1.21 -0.65,-0.82 -0.07,-0.63 -1.05,-1.6 -0.24,-0.26 -0.2,-0.62 0.08,-0.82 0.28,-0.2 0.7,-0.16 0.94,0.1z"/>
     </g>
     <path class="fil0" d="M16.6 30.78c1.14,1.21 0.25,0.91 1.29,2.11 0.06,0.07 1.26,0.6 1.97,1.4 0.09,0.1 0.23,0.07 0.36,0.1"/>
    </g>
    <g>
     <path class="fil1" d="M16.01 31.11c-0.56,-0.69 -0.62,-0.69 -0.81,-1.47 -0.2,-0.85 -0.96,-0.97 -1.64,-1.6 -0.47,-0.43 -0.29,-0.47 -0.69,-0.74l-0.09 -0.09c0.41,-0.25 0.69,0.15 1.17,0.42 0.83,0.45 1.35,0.46 1.95,1.16 0.68,0.8 0.1,0.62 1.11,1.57 0.24,0.25 0.22,0.62 -0.05,0.83 -0.28,0.2 -0.7,0.17 -0.95,-0.08z"/>
    </g>
    <path class="fil0" d="M16.51 30.74c-1.18,-1.19 -0.28,-0.91 -1.36,-2.09 -0.06,-0.06 -1.28,-0.57 -2.01,-1.35 -0.09,-0.1 -0.23,-0.06 -0.36,-0.09"/>
   </g>
   <g>
    <g>
     <g>
      <path class="fil1" d="M9.83 27.57c0.55,0.7 0.61,0.7 0.77,1.49 0.17,0.85 0.92,0.99 1.59,1.63 0.46,0.45 0.27,0.49 0.66,0.76l0.09 0.09c-0.41,0.24 -0.68,-0.17 -1.16,-0.44 -0.81,-0.48 -1.33,-0.49 -1.91,-1.21 -0.66,-0.82 -0.08,-0.62 -1.06,-1.6 -0.24,-0.25 -0.2,-0.62 0.08,-0.82 0.28,-0.2 0.7,-0.15 0.94,0.1z"/>
     </g>
     <path class="fil0" d="M9.32 27.93c1.15,1.21 0.26,0.92 1.29,2.11 0.06,0.07 1.27,0.6 1.97,1.4 0.09,0.1 0.24,0.07 0.36,0.1"/>
    </g>
    <g>
     <path class="fil1" d="M8.74 28.26c-0.57,-0.68 -0.63,-0.69 -0.82,-1.47 -0.2,-0.85 -0.95,-0.97 -1.64,-1.6 -0.47,-0.43 -0.28,-0.47 -0.69,-0.74l-0.09 -0.09c0.41,-0.25 0.69,0.15 1.17,0.42 0.83,0.46 1.36,0.46 1.96,1.16 0.68,0.8 0.09,0.62 1.1,1.58 0.25,0.24 0.22,0.61 -0.05,0.82 -0.28,0.2 -0.7,0.17 -0.94,-0.08z"/>
    </g>
    <path class="fil0" d="M9.23 27.89c-1.18,-1.19 -0.28,-0.91 -1.35,-2.09 -0.06,-0.06 -1.29,-0.57 -2.02,-1.34 -0.09,-0.1 -0.23,-0.07 -0.36,-0.1"/>
   </g>
  </g>
 </g>
</svg>
