<?xml version="1.0" encoding="UTF-8"?>
<!DOCTYPE svg PUBLIC "-//W3C//DTD SVG 1.1//EN" "http://www.w3.org/Graphics/SVG/1.1/DTD/svg11.dtd">
<!-- Creator: CorelDRAW 2018 (64 Bit Versão de avaliação) -->
<svg xmlns="http://www.w3.org/2000/svg" xml:space="preserve" width="142.691mm" height="141.66mm" version="1.1" style="shape-rendering:geometricPrecision; text-rendering:geometricPrecision; image-rendering:optimizeQuality; fill-rule:evenodd; clip-rule:evenodd"
viewBox="0 0 6512.44 6465.38"
 xmlns:xlink="http://www.w3.org/1999/xlink">
 <defs>
  <style type="text/css">
   <![CDATA[
    .fil1 {fill:#F7FBFA}
    .fil0 {fill:#4CA852}
   ]]>
  </style>
 </defs>
 <g id="Camada_x0020_1">
  <metadata id="CorelCorpID_0Corel-Layer"/>
  <g id="_1385974788256">
   <path class="fil0" d="M4300.43 5042.92c-389.31,-0.51 -1181.05,-361.21 -1485.66,-573.21 -401.11,-279.15 -727.29,-629.93 -1013.11,-1048.24 -160.73,-235.22 -269.63,-364.96 -369.37,-667.62 -147.81,-448.52 -38.62,-840.73 262.28,-1149.8 109.93,-112.92 181.21,-124.79 387.14,-119.38 211.68,5.56 214.82,37.46 289.85,216.47 52.54,125.38 98.23,231.28 151.23,361.26 154.26,378.34 217.59,397.29 -52.05,701.12 -175.16,197.37 -193.48,167.33 158.61,626.43 130.57,170.26 343.24,367.63 541.67,496.75 104.14,67.77 205.47,126.78 326.63,183.54 106.5,49.89 259.67,150.12 356.01,60.98 299.21,-276.84 283.44,-527.88 554.91,-415.58 228.28,94.43 478.22,213.83 695.99,329.69 135.73,72.22 145.66,118.19 96.29,363.32 -32.71,162.37 -79.88,257.78 -173.89,339.88 -161.27,140.84 -422.9,294.79 -726.52,294.38zm-4076.83 1275.41l969.77 -301.32c93.13,-30.15 243.04,-106.46 326.37,-55.8 1074.97,653.43 2281.75,669.46 3374.39,61.11 201.38,-112.12 345.05,-230.33 506.41,-360.53 637.6,-514.47 1080.36,-1426.35 1110.12,-2320.94 45.97,-1381.86 -805.01,-2622.52 -2044.88,-3107.63 -2402.61,-940.04 -4877.1,1102.25 -4408.12,3607.53 84.52,451.52 288.84,908.48 509.04,1212.62 74.35,102.7 46.53,85.1 -24.44,302.81 -56.55,173.48 -315.97,893.55 -318.67,962.14z"/>
   <path class="fil1" d="M4300.43 5042.92c303.63,0.4 565.26,-153.54 726.52,-294.38 94.01,-82.1 141.18,-177.5 173.89,-339.88 49.37,-245.12 39.45,-291.1 -96.29,-363.32 -217.77,-115.86 -467.71,-235.26 -695.99,-329.69 -271.47,-112.3 -255.7,138.74 -554.91,415.58 -96.34,89.14 -249.51,-11.09 -356.01,-60.98 -121.16,-56.76 -222.49,-115.77 -326.63,-183.54 -198.43,-129.12 -411.1,-326.49 -541.67,-496.75 -352.09,-459.1 -333.77,-429.06 -158.61,-626.43 269.64,-303.83 206.32,-322.78 52.05,-701.12 -53,-129.98 -98.69,-235.88 -151.23,-361.26 -75.02,-179.01 -78.17,-210.91 -289.85,-216.47 -205.93,-5.42 -277.21,6.46 -387.14,119.38 -300.9,309.07 -410.08,701.28 -262.28,1149.8 99.74,302.66 208.64,432.4 369.37,667.62 285.82,418.32 612,769.09 1013.11,1048.24 304.61,211.99 1096.35,572.69 1485.66,573.21z"/>
  </g>
 </g>
</svg>
